<svg xmlns="http://www.w3.org/2000/svg" viewBox="0 0 40 40"><defs><mask id="a" x="0" y="0" width="40" height="40" maskUnits="userSpaceOnUse"><path fill="#fff" d="M0 40h40V0H0v40z"/></mask></defs><g data-name="Layer 2"><g data-name="Contact Us"><g mask="url(#a)" data-name="icon-call (40)"><path d="M37.91 33.93l-.64.64-7.4-7.4.66-.66a1.64 1.64 0 011-.57c.2 0 .53.06 1 .57l3.66 3.67c.57.57 1.11 1.11 1.64 1.69a1.35 1.35 0 01.49 1 1.77 1.77 0 01-.53 1.05zm-3.3 3.31a3.84 3.84 0 01-2.5 1.18 13.81 13.81 0 01-5.84-1.08 37.86 37.86 0 01-11.44-6.88 42.13 42.13 0 01-9.1-10.62 36.53 36.53 0 01-3.06-6.18 13.45 13.45 0 01-1.08-5.78 3.82 3.82 0 011.18-2.49l2.3-2.29 7.4 7.4-.37.37c-.61.62-1.2 1.2-1.82 1.76a2.63 2.63 0 00-.71 2.89v.06a22.35 22.35 0 003.3 5.32c.77 1 1.57 1.78 2.34 2.58l.34.36A47.33 47.33 0 0019 27.15a22.84 22.84 0 005.36 3.31h.06a2.65 2.65 0 002.9-.7c.54-.61 1.11-1.17 1.71-1.77l.46-.46 7.41 7.4zM7.14 1.56a1.35 1.35 0 011 .49c.59.54 1.14 1.09 1.73 1.67l3.64 3.62c.51.51.57.83.57 1a1.63 1.63 0 01-.57 1l-.7.69-7.4-7.4.66-.65a1.78 1.78 0 011.06-.53zM39 30.78c-.54-.59-1.09-1.13-1.66-1.71L33.7 25.4a3 3 0 00-2.14-1 3.12 3.12 0 00-2.14 1l-.84.84-.63.63c-.62.61-1.2 1.18-1.77 1.82a1.09 1.09 0 01-1.25.32 21.38 21.38 0 01-5-3.08c-1.23-1-3.26-3.12-3.29-3.14l-.35-.36c-.78-.81-1.52-1.58-2.25-2.48A20.89 20.89 0 0111 15a1.06 1.06 0 01.32-1.23c.68-.57 1.26-1.17 1.89-1.77l.57-.57.84-.84a3.07 3.07 0 001-2.14 3 3 0 00-1-2.14L11 2.67C10.4 2.08 9.84 1.53 9.24 1a2.88 2.88 0 00-2.1-1A3.23 3.23 0 005 .95V1L1.66 4.28A5.4 5.4 0 000 7.76a14.87 14.87 0 001.2 6.44 38 38 0 003.18 6.44 43.7 43.7 0 009.44 11 39.37 39.37 0 0011.91 7.16 16.5 16.5 0 005.69 1.2h.81a5.42 5.42 0 003.48-1.63L39 35a3.22 3.22 0 001-2.12 2.87 2.87 0 00-1-2.1z" fill="#006ac3"/></g></g></g></svg>