<svg viewBox="0 0 80 81" xmlns="http://www.w3.org/2000/svg" xmlns:xlink="http://www.w3.org/1999/xlink"><defs><path d="M76.87 26.875c3.326 0 4.35-4.503 1.353-5.942L41.68.979a3.123 3.123 0 00-2.892 0L1.732 20.956c-2.949 1.475-1.899 5.919 1.398 5.919h6.246v41.25h-3.75A3.125 3.125 0 002.5 71.25v6.25c0 1.726 1.4 3.125 3.125 3.125h68.75c1.726 0 3.125-1.4 3.125-3.125v-6.25c0-1.726-1.4-3.125-3.125-3.125h-3.75v-41.25h6.246zM74.376 71.25v6.25H5.625v-6.25h68.75zM12.5 68.125V24.75h10.125v45.5H12.5v-2.125zm11.125 2.125v-45.5h10.25v45.5h-10.25zm11.25 0v-45.5h10.25v45.5h-10.25zm11.25 0v-45.5h10.25v45.5h-10.25zM67.5 26.875V70.25H57.375v-45.5H67.5v2.125zm1.24-3.125H3.13l.042-.021.042-.023 37.02-19.955 36.492 19.925.072.039.073.035H68.74z" id="a"/></defs><g fill="none" fill-rule="evenodd"><mask id="b" fill="#fff"><use xlink:href="#a"/></mask><use fill="#006AC3" fill-rule="nonzero" xlink:href="#a"/><g mask="url(#b)" fill="#006AC3"><path d="M0 0h81v80H0z"/></g></g></svg>